<?xml version="1.0" encoding="UTF-8"?>
<svg width="24px" height="20px" viewBox="0 0 30 20" version="1.1" xmlns="http://www.w3.org/2000/svg" xmlns:xlink="http://www.w3.org/1999/xlink">
    <!-- Generator: Sketch 51.1 (57501) - http://www.bohemiancoding.com/sketch -->
    <title>logo-horizontal-white</title>
    <desc>Created with Sketch.</desc>
    <defs></defs>
    <g>
      <path fill="#fff" xmlns="http://www.w3.org/2000/svg" d="M20.9216058,3.45145455 L18.3040292,3.45145455 C17.7071095,3.45145455 17.2251387,3.84372727 17.2251387,4.32781818 L17.2251387,5.75781818 C17.2251387,5.84963636 17.2251387,5.94190909 17.2708467,6.03463636 C17.8220584,5.36554545 18.6715036,4.92736364 19.6128175,4.92736364 C20.2997956,4.92736364 21.4035766,5.34236364 21.9547883,6.011 C21.9778686,5.94190909 22.0004964,5.84963636 22.0004964,5.75781818 L22.0004964,4.32781818 C22.0004964,3.84372727 21.5185255,3.45145455 20.9216058,3.45145455" id="Fill-17"/>
      <path fill="#fff" d="M15.3857752,15.2275 C15.0762277,15.2861364 14.7675854,15.3193182 14.4616584,15.3311364 C14.1557314,15.3193182 13.8470891,15.2861364 13.5375416,15.2275 C11.3145927,14.8070455 9.58990657,13.2347727 8.82825693,11.2170455 C9.90488467,12.4470455 12.0508993,13.0838636 14.4616584,13.1115909 C16.8724175,13.0838636 19.0184321,12.4470455 20.0946073,11.2170455 C19.3334102,13.2347727 17.6087241,14.8070455 15.3857752,15.2275 Z M6.97187737,4.67795455 L6.97187737,6.10795455 C6.97187737,6.26977273 7.02889927,6.41977273 7.12348321,6.54977273 C6.27403796,6.63295455 5.46396496,6.7475 4.70503066,6.90840909 C5.11142482,5.86568182 5.96675328,4.19295455 6.98273869,3.1375 C7.16195036,2.96113636 7.8616,2.33204545 8.90926423,2.1475 C9.41974599,2.06886364 11.2485197,1.79386364 14.0905635,1.79386364 L14.4797606,1.79386364 L14.8689577,1.79386364 C17.711454,1.79386364 19.5397752,2.06886364 20.0502569,2.1475 C21.0979212,2.33204545 21.7975708,2.96113636 21.9767825,3.1375 C22.9927679,4.19295455 23.8485489,5.86568182 24.2544905,6.90840909 C22.6406803,6.56522727 20.8024029,6.42840909 18.8260964,6.3775 C18.607965,6.37295455 18.0105927,6.35977273 17.4562131,6.3525 L16.9199358,6.3525 C16.5112788,6.35113636 16.0990015,6.35113636 15.681746,6.3525 L14.4797606,6.3525 L13.2777752,6.3525 C12.8609723,6.35113636 12.4482423,6.35113636 12.0395854,6.3525 L11.7033372,6.3525 C11.7313956,6.27477273 11.7476876,6.1925 11.7476876,6.10795455 L11.7476876,4.67795455 C11.7476876,4.19386364 11.2657168,3.80159091 10.6687971,3.80159091 L8.05122044,3.80159091 C7.45430073,3.80159091 6.97187737,4.19386364 6.97187737,4.67795455 Z M23.1434686,13.8920455 C22.3085051,13.8088636 21.6332934,13.1311364 21.5504759,12.2925 C21.4386949,11.1597727 22.3791036,10.2152273 23.5073226,10.3275 C24.3418336,10.4102273 25.0170453,11.0888636 25.0998628,11.9265909 C25.2116438,13.0597727 24.271235,14.0043182 23.1434686,13.8920455 Z M5.4485781,13.8920455 C4.6136146,13.8088636 3.93840292,13.1311364 3.8555854,12.2925 C3.74380438,11.1597727 4.68421314,10.2152273 5.81243212,10.3275 C6.64739562,10.4102273 7.3226073,11.0888636 7.40497226,11.9265909 C7.51675328,13.0597727 6.57634453,14.0043182 5.4485781,13.8920455 Z M28.9017752,5.87068182 C28.8904613,5.45340909 28.5356584,5.13022727 28.1202131,5.14204545 L26.4588847,5.18795455 C26.085527,5.19840909 25.7868409,5.4875 25.7393226,5.84931818 C25.7284613,5.9325 25.7103591,6.01386364 25.6890891,6.09431818 L25.5021839,5.72477273 C24.8247095,4.46613636 23.899235,2.95431818 22.969235,2.00204545 L22.9701401,2.00204545 C22.9701401,2.00204545 22.1532788,0.996136364 20.5154832,0.663409091 C20.5123153,0.6625 20.5096,0.662045455 20.5064321,0.661590909 C19.0799796,0.355681818 16.7565635,0.277045455 14.4797606,0.293409091 C12.2029577,0.277045455 9.87954161,0.355681818 8.45308905,0.661590909 C8.44992117,0.662045455 8.44720584,0.6625 8.44403796,0.663409091 C6.80669489,0.996136364 5.98938102,2.00204545 5.98938102,2.00204545 L5.99028613,2.00204545 C5.06028613,2.95431818 4.13526423,4.46613636 3.45733723,5.72477273 L3.24780438,6.14068182 C3.22065109,6.04431818 3.19666569,5.94795455 3.18354161,5.84931818 C3.13602336,5.4875 2.83778978,5.19840909 2.46397956,5.18795455 L0.802651095,5.14204545 C0.387658394,5.13022727 0.0328554745,5.45340909 0.0215416058,5.87068182 L0.000271532847,6.68340909 C-0.0110423358,7.10068182 0.310724088,7.45659091 0.726169343,7.46840909 L2.4915854,7.67340909 L2.51330803,7.63840909 C2.50018394,7.66795455 2.48751241,7.69704545 2.47710365,7.72204545 C1.89285547,8.39386364 1.53850511,9.18022727 1.43351241,9.80977273 C1.24298686,10.4643182 1.13573139,11.2975 1.13573139,12.3638636 C1.13573139,13.8929545 1.5516292,15.9784091 1.6516438,16.9952273 L1.6516438,18.5088636 C1.6516438,19.2634091 2.26032993,19.8752273 3.01202336,19.8752273 L4.85844672,19.8752273 C5.60968759,19.8752273 6.21882628,19.2634091 6.21882628,18.5088636 L6.21882628,17.3834091 C8.15349781,17.2052273 11.309162,17.1447727 14.4797606,17.1388636 C17.6503591,17.1447727 20.8060234,17.2052273 22.7406949,17.3834091 L22.7406949,18.5088636 C22.7406949,19.2634091 23.3498336,19.8752273 24.1010745,19.8752273 L25.9474978,19.8752273 C26.6991912,19.8752273 27.3078774,19.2634091 27.3078774,18.5088636 L27.3078774,16.9952273 C27.407892,15.9784091 27.8237898,13.8929545 27.8237898,12.3638636 C27.8237898,9.99568182 26.9476438,8.32522727 26.4824175,7.72204545 C26.4760818,7.70659091 26.4679358,7.68795455 26.4602423,7.67022727 L28.1971474,7.46840909 C28.6121401,7.45659091 28.9343591,7.10068182 28.9230453,6.68340909 L28.9017752,5.87068182 Z" id="Fill-19"></path>
    </g>
</svg>
